<svg width="29" height="32" fill="none" xmlns="http://www.w3.org/2000/svg"><ellipse cx="14.5" cy="16" rx="14.5" ry="16" fill="#BF6712"/><path d="M10.178 12.89V20H8.586v-7.11h1.592zm2.798 2.999v1.23H9.733v-1.23h3.243zm.312-2.998v1.235H9.733v-1.235h3.555zm.777 0h2.729c.544 0 1.014.081 1.411.244.4.162.708.403.923.722.215.32.322.713.322 1.182 0 .39-.063.723-.19.996-.127.274-.306.5-.537.679a2.858 2.858 0 01-.801.434l-.518.284H15.08l-.01-1.236H16.8c.238 0 .434-.042.59-.127a.825.825 0 00.352-.356c.082-.156.122-.339.122-.547 0-.215-.04-.4-.122-.557a.814.814 0 00-.361-.356 1.22 1.22 0 00-.586-.127h-1.138V20h-1.591v-7.11zM18 20l-1.597-3.16 1.68-.004 1.621 3.09V20H18z" fill="#000"/></svg>